# xmcd
# Track frame offsets:
# 150
# 15825
# 29963
# 47500
# 61238
# 75338
# 87688
# 102713
# 117900
# 131675
# 146863
# 160813
# 175325
# 192063
#
# Disc length: 2784 seconds
# Revision: 0
# Processed by: cddbd v1.4PL0 Copyright (c) Steve Scherf et al.
# Submitted via: VisiTrax 2.9.5.180 - For more info visit www.synapsa.com
#
DISCID=be0ade0e
DTITLE=Noel Parlane - Can I count on you
DYEAR=1900
DGENRE=
TTITLE0=Talkin' it over
TTITLE1=You're so good for me
TTITLE2=Pretty lady
TTITLE3=Eighteen wheels
TTITLE4=Can I count on you
TTITLE5=Concrete jungles
TTITLE6=You bring out the best in me
TTITLE7=I've got tonight
TTITLE8=Rollin' down the highwa
TTITLE9=Dear old dad
TTITLE10=You can't take it with you
TTITLE11=Ridin' the rodeo
TTITLE12=Ever lovin' man
TTITLE13=Love me tender
EXTD=
EXTT0=
EXTT1=
EXTT2=
EXTT3=
EXTT4=
EXTT5=
EXTT6=
EXTT7=
EXTT8=
EXTT9=
EXTT10=
EXTT11=
EXTT12=
EXTT13=
PLAYORDER=
